 http://www.sortiescinema.fr/affiches/cleaner-affiche.jpg


Ancien membre de la police de Trenton, Tom Cutler se recycle comme nettoyeur de scènes de crimes, un métier honnête qui lui permet d'élever seul sa fille Rose avec la conscience tranquille.
Lors de sa dernière mission, il s'aperçoit que le crime dont il a effacé les traces n'a jamais été signalé à la police. Quand Ann Norcut, la femme qui habite la maison où il vient d'intervenir, lui demande de l'aider à trouver une piste sur son mari disparu, Tom comprend qu'il a été piégé.
Pour éviter de se voir impliqué dans cet assassinat, il va falloir qu'il aide Ann à découvrir la vérité. Eddie Lorenzo, son ancien co-équipier et ami, peut l'aider. Mais Tom va vite découvrir que tout le monde garde de lourds secrets.

Réalisé par Renny Harlin
Avec Samuel L. Jackson, Eva Mendes, Ed Harris...

Long-métrage américain
Genre : Thriller
Durée : 01h25min
Année de production : 2007
Distributeur : Colifilms Diffusion 

Cleaner Truefrench Dvdrip Xvid AC3 FwD.avi
Format : AVI
Format/Info : Audio Video Interleave
File size : 992 MiB
Duration : 1h 25mn
Overall bit rate : 1 627 Kbps
Writing application : FairUse Wizard - http://fairusewizard.com
Writing library : The best and REALLY easy backup tool

Video
ID : 0
Format : MPEG-4 Visual
Format profile : Advanced Simple@L5
Format settings, BVOP : 1
Format settings, QPel : No
Format settings, GMC : No warppoints
Format settings, Matrix : Default (MPEG)
Muxing mode : Packed bitstream
Codec ID : XVID
Codec ID/Hint : XviD
Duration : 1h 25mn
Bit rate : 1 169 Kbps
Width : 672 pixels
Height : 272 pixels
Display aspect ratio : 2.471
Frame rate : 25.000 fps
Color space : YUV
Chroma subsampling : 4:2:0
Bit depth : 8 bits
Scan type : Progressive
Compression mode : Lossy
Bits/(Pixel*Frame) : 0.256
Stream size : 713 MiB (72%)
Writing library : XviD 1.2.0.dev47 (UTC 2006-11-01)

Audio
ID : 1
Format : AC-3
Format/Info : Audio Coding 3
Mode extension : CM (complete main)
Codec ID : 2000
Duration : 1h 25mn
Bit rate mode : Constant
Bit rate : 448 Kbps
Channel(s) : 6 channels
Channel positions : Front: L C R, Side: L R, LFE
Sampling rate : 48.0 KHz
Bit depth : 16 bits
Compression mode : Lossy
Stream size : 273 MiB (28%)
Alignment : Split accross interleaves
Interleave, duration : 40 ms (1.00 video frame)
Interleave, preload duration : 500 ms
